<svg width="140" height="64" viewBox="0 0 140 64" fill="none" xmlns="http://www.w3.org/2000/svg">
<mask id="mask0" mask-type="alpha" maskUnits="userSpaceOnUse" x="0" y="0" width="140" height="64">
<rect width="140" height="64" fill="#C4C4C4"/>
</mask>
<g mask="url(#mask0)">
<path d="M7.30121 23.2605C8.98185 24.9411 8.98185 27.6464 7.30121 29.3123C5.62057 30.9782 2.91533 30.9929 1.24943 29.3123C-0.409097 27.6316 -0.42384 24.9338 1.24943 23.2605C2.93007 21.5798 5.63531 21.5798 7.30121 23.2605ZM0.195344 38.6148C0.844012 40.9957 3.29863 42.3962 5.6648 41.7475C7.55183 41.2242 8.82706 39.5583 8.93762 37.7007C9.12191 34.7006 11.1637 32.0175 14.2228 31.1698C14.7019 31.0445 15.1811 30.956 15.6602 30.9266H15.6749C15.9698 30.8971 16.2646 30.8528 16.5669 30.7718C18.933 30.1231 20.3335 27.6685 19.6849 25.2876C19.0362 22.9067 16.5816 21.5135 14.2081 22.1622C12.321 22.6855 11.0458 24.3514 10.9352 26.1942C10.9352 26.209 10.9352 26.209 10.9352 26.2237C10.7583 29.2238 8.69437 31.8996 5.63531 32.7473C5.15618 32.8726 4.67705 32.961 4.19792 32.9905H4.18318C3.88833 33.02 3.59348 33.0642 3.29126 33.1453C0.925096 33.7792 -0.453325 36.2486 0.195344 38.6148ZM30.3953 34.6933C32.0759 36.3739 32.0759 39.0791 30.3953 40.745C28.7146 42.4109 26.0094 42.4257 24.3435 40.745C22.6629 39.0644 22.6629 36.3592 24.3435 34.6933C26.0168 33.0126 28.722 33.0126 30.3953 34.6933ZM12.0409 38.7032C12.6896 41.0841 15.1442 42.4847 17.5104 41.836C19.3974 41.3126 20.6726 39.6467 20.7832 37.7892C20.9675 34.7891 23.0093 32.106 26.0684 31.2583C26.5475 31.133 27.0266 31.0445 27.5058 31.015H27.5205C27.8153 30.9855 28.1102 30.9413 28.4124 30.8602C30.7786 30.2116 32.1791 27.7569 31.5304 25.376C30.8818 22.9877 28.4272 21.5946 26.0536 22.2433C24.1666 22.7666 22.8914 24.4178 22.7808 26.2753C22.7808 26.2901 22.7808 26.2901 22.7808 26.3048C22.5965 29.3049 20.5547 31.988 17.4956 32.8357C17.0165 32.961 16.5374 33.0495 16.0582 33.079H16.0435C15.7486 33.1084 15.4538 33.1527 15.1516 33.2338C12.7707 33.8603 11.3922 36.3297 12.0409 38.7032Z" fill="url(#paint0_linear)"/>
<path d="M45.8372 38.7474V41.6812L45.5718 41.7254C45.5497 41.7254 45.1369 41.7844 44.6652 41.7844C42.041 41.7844 40.6995 40.3765 40.6995 37.627V22H43.9428V37.1774C43.9428 38.6885 44.4809 38.8138 45.078 38.8138C45.3065 38.8138 45.4908 38.7917 45.4908 38.7917L45.8372 38.7474Z" fill="#402E3C"/>
<path d="M54.6824 27.064C50.3039 27.064 47.0164 30.2705 47.0164 34.5089C47.0164 38.7695 50.326 41.9907 54.6824 41.9907C59.061 41.9907 62.3485 38.7621 62.3485 34.5089C62.3485 30.2705 59.0462 27.064 54.6824 27.064ZM54.6824 39.1012C52.2204 39.1012 50.3039 37.0741 50.3039 34.4868C50.3039 31.8995 52.1836 29.9387 54.6824 29.9387C57.1813 29.9387 59.0609 31.8995 59.0609 34.4868C59.0609 37.1331 57.1813 39.1012 54.6824 39.1012Z" fill="#402E3C"/>
<path d="M77.4521 41.6664H73.6486L69.5575 35.2535H68.0685V41.6664H64.8252V22H68.0685V32.4229H69.5133L73.2358 27.3957H76.973L72.1817 33.7645L77.4521 41.6664Z" fill="#402E3C"/>
<path d="M82.2538 27.3955H79.0105V41.6662H82.2538V27.3955Z" fill="#402E3C"/>
<path d="M93.0155 27.064C90.8852 27.064 89.6247 28.0149 88.9687 28.7373V22H85.7253V41.6664H88.8213C88.8213 41.6664 88.8213 40.3028 88.8213 40.2807C89.4847 41.0251 90.7673 41.9981 92.8091 41.9981C96.6495 41.9981 99.3179 38.9391 99.3179 34.5311C99.3179 30.0641 96.7822 27.064 93.0155 27.064ZM92.4405 39.1381C90.0007 39.1381 88.8876 36.7793 88.8876 34.5901C88.8876 31.7153 90.2513 29.9757 92.5216 29.9757C94.6519 29.9757 96.0746 31.8185 96.0746 34.5458C96.0746 37.2806 94.6077 39.1381 92.4405 39.1381Z" fill="#402E3C"/>
<path d="M108.574 27.064C104.195 27.064 100.908 30.2705 100.908 34.5089C100.908 38.7695 104.217 41.9907 108.574 41.9907C112.952 41.9907 116.24 38.7621 116.24 34.5089C116.262 30.2705 112.96 27.064 108.574 27.064ZM108.574 39.1012C106.112 39.1012 104.195 37.0741 104.195 34.4868C104.195 31.8995 106.075 29.9387 108.574 29.9387C111.073 29.9387 112.952 31.8995 112.952 34.4868C112.96 37.1331 111.08 39.1012 108.574 39.1012Z" fill="#402E3C"/>
<path d="M126.084 39.101V41.6883L125.819 41.7325C125.797 41.7325 125.406 41.7915 124.846 41.7915C123.172 41.7915 119.31 41.2534 119.31 36.3736V30.3145H117.533V27.5871H119.391V23.6509H122.553V27.5797H125.841V30.3071H122.553V36.0788C122.553 38.3712 123.961 38.8504 125.155 38.8504C125.487 38.8504 125.716 38.8061 125.716 38.8061L126.084 38.725V39.101Z" fill="#402E3C"/>
<path d="M138.023 37.7153C138.023 40.2363 135.871 41.998 132.775 41.998C129.325 41.998 127.446 39.9931 127.365 39.912L127.202 39.7277L128.817 37.3468L129.082 37.6121C129.104 37.6343 130.571 39.1011 132.76 39.1011C133.733 39.1011 134.721 38.622 134.721 37.7153C134.721 36.8455 133.52 36.3738 132.156 35.8136C130.173 35.0101 127.711 34.015 127.711 31.2655C127.711 28.7667 129.819 27.0713 132.959 27.0713C136.055 27.0713 137.529 28.6192 137.588 28.6856L137.736 28.8478L136.372 31.3908L136.085 31.1034C136.085 31.0812 134.927 29.9903 132.922 29.9903C132.591 29.9903 130.999 30.0493 130.999 31.354C130.999 32.1796 132.178 32.6587 133.542 33.1968C135.525 33.9486 138.023 34.9438 138.023 37.7153Z" fill="#402E3C"/>
<path d="M82.3977 22H78.9771V25.4482H82.3977V22Z" fill="#402E3C"/>
</g>
<defs>
<linearGradient id="paint0_linear" x1="-0.252038" y1="24.1028" x2="30.9007" y2="39.3613" gradientUnits="userSpaceOnUse">
<stop stop-color="#8A2387"/>
<stop offset="0.4926" stop-color="#E94057"/>
<stop offset="1" stop-color="#F27121"/>
</linearGradient>
</defs>
</svg>
